<?xml version="1.0" encoding="utf-8"?>
<!-- Generator: Adobe Illustrator 26.4.1, SVG Export Plug-In . SVG Version: 6.00 Build 0)  -->
<svg version="1.0"
	 id="svg5" xmlns:sodipodi="http://sodipodi.sourceforge.net/DTD/sodipodi-0.dtd" xmlns:svg="http://www.w3.org/2000/svg" xmlns:inkscape="http://www.inkscape.org/namespaces/inkscape"
	 xmlns="http://www.w3.org/2000/svg" xmlns:xlink="http://www.w3.org/1999/xlink" x="0px" y="0px" viewBox="0 0 362.4 274.36"
	 style="enable-background:new 0 0 362.4 274.36;" xml:space="preserve">
<style type="text/css">
	.st0{fill:#FFC800;}
</style>
<sodipodi:namedview  bordercolor="#666666" borderopacity="1.0" id="namedview7" inkscape:current-layer="layer1" inkscape:cx="241.48944" inkscape:cy="163.93683" inkscape:document-units="mm" inkscape:pagecheckerboard="0" inkscape:pageopacity="0.0" inkscape:pageshadow="2" inkscape:window-height="1017" inkscape:window-maximized="1" inkscape:window-width="1920" inkscape:window-x="-8" inkscape:window-y="-8" inkscape:zoom="1.8116734" pagecolor="#ffffff" showgrid="false">
	</sodipodi:namedview>
<g id="layer1" transform="translate(25.890543,-68.63694)" inkscape:groupmode="layer" inkscape:label="Layer 1">
	<g id="g859" transform="matrix(3.5301229,0,0,3.5301229,-25.890174,68.651313)">
		<path id="path849" class="st0" d="M51.33,68.08C67.7,68.31,81.16,55.23,81.4,38.86C81.16,22.49,67.7,9.41,51.33,9.64
			C34.95,9.41,21.49,22.49,21.25,38.86C21.49,55.23,34.95,68.31,51.33,68.08z"/>
		<path id="path851" d="M64.27,60.63c-10.21,5.73-21.29,6.75-28.37,3.32c9.41,5.43,20.98,5.52,30.47,0.22
			c9.37-5.16,15.15-15.05,15.04-25.74C80.93,46.09,74.48,54.9,64.27,60.63L64.27,60.63z"/>
		<path id="path853" d="M55.14,11.78c2.07,3.48-2.93,10.06-11.18,14.68c-8.25,4.63-16.61,5.55-18.68,2.06
			c-0.09-0.17-0.17-0.35-0.23-0.53c-0.39-2.13,0.22-4.31,1.65-5.93c0.25-0.35,0.51-0.69,0.77-1.02c2.42-3.05,5.41-5.6,8.81-7.49
			c3.42-1.92,7.19-3.17,11.08-3.67c0.44-0.06,0.87-0.11,1.29-0.14c2.17-0.39,4.4,0.18,6.11,1.57
			C54.91,11.46,55.03,11.62,55.14,11.78z"/>
		<path id="path855" d="M67.93,15.55c3.62,6.08-3.68,16.75-16.29,23.82s-25.77,7.88-29.38,1.8c-0.6-1.02-0.94-2.17-0.99-3.36
			c-0.16,4.18,0.61,8.34,2.25,12.19c0.25,0.59,0.53,1.17,0.82,1.75l0.04,0.07c1.13,1.85,2.76,3.35,4.71,4.31
			c7.08,3.68,19.04,2.42,30.23-3.86C70.49,46,77.6,36.57,77.87,28.78c0.11-2.13-0.41-4.25-1.48-6.1c-0.41-0.6-0.83-1.18-1.28-1.73
			c-2.62-3.28-5.9-5.96-9.62-7.88C66.48,13.69,67.32,14.54,67.93,15.55l0.01,0.01L67.93,15.55z"/>
	</g>
</g>
</svg>
